<?xml version="1.0" encoding="UTF-8" standalone="no"?>
<svg width="100" height="100" viewBox="0 0 100 100" xmlns="http://www.w3.org/2000/svg">
  <!-- Background circle -->
  <circle cx="50" cy="50" r="50" fill="#d15465"/>
  
  <!-- Face -->
  <circle cx="50" cy="45" r="22" fill="#ffffff"/>
  
  <!-- Hair -->
  <path d="M 28 45 C 28 35 40 25 50 25 C 60 25 72 35 72 45 C 72 45 72 35 50 35 C 28 35 28 45 28 45 Z" fill="#333333"/>
  
  <!-- Eyes -->
  <circle cx="42" cy="42" r="3" fill="#333333"/>
  <circle cx="58" cy="42" r="3" fill="#333333"/>
  
  <!-- Smile -->
  <path d="M 40 52 C 45 58 55 58 60 52" stroke="#333333" stroke-width="2" fill="none"/>
  
  <!-- Doctor coat -->
  <path d="M 25 85 C 25 65 35 60 50 60 C 65 60 75 65 75 85 L 25 85 Z" fill="#ffffff"/>
  
  <!-- Stethoscope -->
  <path d="M 40 70 C 45 65 55 65 60 70" stroke="#333333" stroke-width="2" fill="none"/>
  <circle cx="40" cy="70" r="3" fill="#333333"/>
</svg>
