<?xml version="1.0" encoding="UTF-8" standalone="no"?>
<svg width="100" height="100" viewBox="0 0 100 100" xmlns="http://www.w3.org/2000/svg">
  <!-- Background circle -->
  <circle cx="50" cy="50" r="50" fill="#d15465"/>
  
  <!-- Face -->
  <circle cx="50" cy="45" r="22" fill="#ffffff"/>
  
  <!-- Hair -->
  <path d="M 30 30 C 30 20 40 15 50 15 C 60 15 70 20 70 30 L 70 45 C 70 45 70 35 50 35 C 30 35 30 45 30 45 L 30 30 Z" fill="#333333"/>
  
  <!-- Eyes -->
  <circle cx="42" cy="42" r="3" fill="#333333"/>
  <circle cx="58" cy="42" r="3" fill="#333333"/>
  
  <!-- Smile -->
  <path d="M 40 52 C 45 58 55 58 60 52" stroke="#333333" stroke-width="2" fill="none"/>
  
  <!-- Mental health specialist coat -->
  <path d="M 25 85 C 25 65 35 60 50 60 C 65 60 75 65 75 85 L 25 85 Z" fill="#ffffff"/>
  
  <!-- Pen in pocket -->
  <rect x="60" y="65" width="2" height="10" fill="#333333"/>
  
  <!-- Glasses -->
  <circle cx="42" cy="42" r="5" stroke="#333333" stroke-width="1" fill="none"/>
  <circle cx="58" cy="42" r="5" stroke="#333333" stroke-width="1" fill="none"/>
  <line x1="47" y1="42" x2="53" y2="42" stroke="#333333" stroke-width="1"/>
</svg>
