<?xml version="1.0" encoding="UTF-8" standalone="no"?>
<svg width="100" height="100" viewBox="0 0 100 100" xmlns="http://www.w3.org/2000/svg">
  <!-- Background circle -->
  <circle cx="50" cy="50" r="50" fill="#d15465"/>
  
  <!-- Face -->
  <circle cx="50" cy="45" r="22" fill="#ffffff"/>
  
  <!-- Hair -->
  <path d="M 28 35 C 28 25 40 20 50 20 C 60 20 72 25 72 35 L 72 45 C 72 45 72 35 50 35 C 28 35 28 45 28 45 L 28 35 Z" fill="#333333"/>
  
  <!-- Eyes -->
  <circle cx="42" cy="42" r="3" fill="#333333"/>
  <circle cx="58" cy="42" r="3" fill="#333333"/>
  
  <!-- Smile -->
  <path d="M 40 52 C 45 58 55 58 60 52" stroke="#333333" stroke-width="2" fill="none"/>
  
  <!-- Community health worker uniform -->
  <path d="M 25 85 C 25 65 35 60 50 60 C 65 60 75 65 75 85 L 25 85 Z" fill="#4cc9f0"/>
  
  <!-- Badge -->
  <rect x="45" y="65" width="10" height="15" rx="2" ry="2" fill="#ffffff"/>
  <line x1="50" y1="65" x2="50" y2="80" stroke="#d15465" stroke-width="1"/>
  <line x1="45" y1="70" x2="55" y2="70" stroke="#d15465" stroke-width="1"/>
</svg>
