<?xml version="1.0" encoding="UTF-8" standalone="no"?>
<svg width="100" height="100" viewBox="0 0 100 100" xmlns="http://www.w3.org/2000/svg">
  <!-- Background circle -->
  <circle cx="50" cy="50" r="50" fill="#d15465"/>
  
  <!-- Face -->
  <circle cx="50" cy="45" r="22" fill="#ffffff"/>
  
  <!-- Hair -->
  <path d="M 28 30 C 28 20 40 15 50 15 C 60 15 72 20 72 30 C 72 30 75 40 72 45 C 72 45 72 35 50 35 C 28 35 28 45 28 45 C 25 40 28 30 28 30 Z" fill="#333333"/>
  
  <!-- Eyes -->
  <circle cx="42" cy="42" r="3" fill="#333333"/>
  <circle cx="58" cy="42" r="3" fill="#333333"/>
  
  <!-- Smile -->
  <path d="M 40 52 C 45 58 55 58 60 52" stroke="#333333" stroke-width="2" fill="none"/>
  
  <!-- Rural patient clothes -->
  <path d="M 25 85 C 25 65 35 60 50 60 C 65 60 75 65 75 85 L 25 85 Z" fill="#c23a4a"/>
  
  <!-- Traditional necklace -->
  <path d="M 40 65 C 40 65 50 75 60 65" stroke="#ffffff" stroke-width="2" fill="none"/>
  <circle cx="50" cy="70" r="3" fill="#ffffff"/>
  <circle cx="45" cy="68" r="2" fill="#ffffff"/>
  <circle cx="55" cy="68" r="2" fill="#ffffff"/>
</svg>
