<?xml version="1.0" encoding="UTF-8" standalone="no"?>
<svg width="200" height="200" viewBox="0 0 200 200" xmlns="http://www.w3.org/2000/svg">
  <!-- Background -->
  <rect x="0" y="0" width="200" height="200" fill="#ffffff"/>
  
  <!-- QR Code pattern (simplified) -->
  <g fill="#d15465">
    <!-- Position detection patterns (corners) -->
    <rect x="20" y="20" width="30" height="30"/>
    <rect x="25" y="25" width="20" height="20" fill="#ffffff"/>
    <rect x="30" y="30" width="10" height="10"/>
    
    <rect x="150" y="20" width="30" height="30"/>
    <rect x="155" y="25" width="20" height="20" fill="#ffffff"/>
    <rect x="160" y="30" width="10" height="10"/>
    
    <rect x="20" y="150" width="30" height="30"/>
    <rect x="25" y="155" width="20" height="20" fill="#ffffff"/>
    <rect x="30" y="160" width="10" height="10"/>
    
    <!-- Timing patterns -->
    <rect x="60" y="20" width="10" height="10"/>
    <rect x="80" y="20" width="10" height="10"/>
    <rect x="100" y="20" width="10" height="10"/>
    <rect x="120" y="20" width="10" height="10"/>
    
    <rect x="20" y="60" width="10" height="10"/>
    <rect x="20" y="80" width="10" height="10"/>
    <rect x="20" y="100" width="10" height="10"/>
    <rect x="20" y="120" width="10" height="10"/>
    
    <!-- Data modules (simplified pattern) -->
    <rect x="60" y="40" width="10" height="10"/>
    <rect x="80" y="40" width="10" height="10"/>
    <rect x="100" y="40" width="10" height="10"/>
    <rect x="120" y="40" width="10" height="10"/>
    <rect x="140" y="40" width="10" height="10"/>
    
    <rect x="40" y="60" width="10" height="10"/>
    <rect x="60" y="60" width="10" height="10"/>
    <rect x="100" y="60" width="10" height="10"/>
    <rect x="140" y="60" width="10" height="10"/>
    <rect x="160" y="60" width="10" height="10"/>
    
    <rect x="40" y="80" width="10" height="10"/>
    <rect x="80" y="80" width="10" height="10"/>
    <rect x="120" y="80" width="10" height="10"/>
    <rect x="140" y="80" width="10" height="10"/>
    
    <rect x="60" y="100" width="10" height="10"/>
    <rect x="80" y="100" width="10" height="10"/>
    <rect x="120" y="100" width="10" height="10"/>
    <rect x="160" y="100" width="10" height="10"/>
    
    <rect x="40" y="120" width="10" height="10"/>
    <rect x="60" y="120" width="10" height="10"/>
    <rect x="100" y="120" width="10" height="10"/>
    <rect x="120" y="120" width="10" height="10"/>
    <rect x="160" y="120" width="10" height="10"/>
    
    <rect x="40" y="140" width="10" height="10"/>
    <rect x="60" y="140" width="10" height="10"/>
    <rect x="80" y="140" width="10" height="10"/>
    <rect x="100" y="140" width="10" height="10"/>
    <rect x="140" y="140" width="10" height="10"/>
    
    <rect x="60" y="160" width="10" height="10"/>
    <rect x="80" y="160" width="10" height="10"/>
    <rect x="120" y="160" width="10" height="10"/>
    <rect x="140" y="160" width="10" height="10"/>
    <rect x="160" y="160" width="10" height="10"/>
  </g>
  
  <!-- KosmoHealth logo in center -->
  <circle cx="100" cy="100" r="20" fill="#ffffff" stroke="#d15465" stroke-width="2"/>
  <text x="100" y="105" font-family="Arial" font-size="10" text-anchor="middle" fill="#d15465">KH</text>
</svg>
