<?xml version="1.0" encoding="UTF-8" standalone="no"?>
<svg width="100" height="100" viewBox="0 0 100 100" xmlns="http://www.w3.org/2000/svg">
  <!-- Background circle -->
  <circle cx="50" cy="50" r="50" fill="#fff5f8"/>
  
  <!-- Privacy icon -->
  <circle cx="50" cy="50" r="35" fill="#ffffff" stroke="#d15465" stroke-width="2"/>
  
  <!-- Lock shape -->
  <rect x="35" y="45" width="30" height="25" rx="3" ry="3" fill="#d15465"/>
  <path d="M 40 45 L 40 35 C 40 30 45 25 50 25 C 55 25 60 30 60 35 L 60 45" fill="none" stroke="#d15465" stroke-width="4"/>
  
  <!-- Keyhole -->
  <circle cx="50" cy="55" r="5" fill="#ffffff"/>
  <rect x="48" y="55" width="4" height="8" fill="#ffffff"/>
  
  <!-- Shield outline (for extra privacy) -->
  <path d="M 30 50 C 30 70 50 80 50 80 C 50 80 70 70 70 50 L 70 30 L 50 20 L 30 30 L 30 50 Z" fill="none" stroke="#d15465" stroke-width="1" opacity="0.3"/>
</svg>
