<?xml version="1.0" encoding="UTF-8" standalone="no"?>
<svg width="100" height="100" viewBox="0 0 100 100" xmlns="http://www.w3.org/2000/svg">
  <!-- Background circle -->
  <circle cx="50" cy="50" r="50" fill="#fff5f8"/>
  
  <!-- Multilingual icon -->
  <circle cx="50" cy="50" r="35" fill="#ffffff" stroke="#d15465" stroke-width="2"/>
  
  <!-- Speech bubbles -->
  <path d="M 30 40 C 25 40 25 45 25 45 L 25 55 C 25 55 25 60 30 60 L 40 60 L 40 65 L 45 60 L 50 60 C 55 60 55 55 55 55 L 55 45 C 55 45 55 40 50 40 L 30 40 Z" fill="#d15465"/>
  <path d="M 50 50 C 45 50 45 55 45 55 L 45 65 C 45 65 45 70 50 70 L 60 70 L 60 75 L 65 70 L 70 70 C 75 70 75 65 75 65 L 75 55 C 75 55 75 50 70 50 L 50 50 Z" fill="#d15465" opacity="0.7"/>
  
  <!-- Text in bubbles (representing different languages) -->
  <text x="32" y="53" font-family="Arial" font-size="10" fill="#ffffff">Kiny</text>
  <text x="52" y="63" font-family="Arial" font-size="10" fill="#ffffff">Eng</text>
</svg>
